<?xml version="1.0" standalone="no"?>
<!DOCTYPE svg PUBLIC "-//W3C//DTD SVG 20010904//EN"
 "http://www.w3.org/TR/2001/REC-SVG-20010904/DTD/svg10.dtd">
<svg version="1.0" xmlns="http://www.w3.org/2000/svg"
 width="471.000000pt" height="471.000000pt" viewBox="0 0 471.000000 471.000000"
 preserveAspectRatio="xMidYMid meet">
<metadata>
Created by potrace 1.11, written by Peter Selinger 2001-2013
</metadata>
<g transform="translate(0.000000,471.000000) scale(0.100000,-0.100000)"
fill="#000000" stroke="none">
<path d="M1187 4692 c-12 -13 -17 -37 -17 -75 0 -50 3 -59 26 -73 14 -10 62
-21 112 -26 48 -6 95 -14 104 -19 10 -5 27 -9 38 -9 29 0 160 -135 167 -172 3
-16 10 -31 14 -34 5 -3 9 -22 9 -43 0 -20 7 -46 15 -57 10 -13 14 -45 15 -104
0 -93 4 -101 71 -136 30 -15 34 -15 62 1 65 39 67 43 67 136 0 51 -6 104 -15
129 -8 23 -15 58 -15 76 0 19 -4 34 -9 34 -5 0 -12 18 -16 39 -4 22 -13 45
-21 52 -8 6 -14 20 -14 29 0 10 -3 20 -8 22 -4 2 -28 27 -52 57 -51 61 -150
141 -175 141 -9 0 -23 7 -31 15 -9 8 -28 15 -44 15 -16 0 -32 5 -35 10 -4 6
-55 10 -119 10 -97 0 -115 -3 -129 -18z"/>
<path d="M3185 4700 c-3 -5 -17 -10 -29 -10 -13 0 -29 -7 -36 -15 -7 -8 -21
-15 -31 -15 -10 0 -21 -5 -24 -11 -4 -5 -17 -14 -28 -20 -24 -10 -54 -28 -73
-44 -7 -5 -27 -21 -44 -35 -70 -53 -288 -284 -301 -318 -4 -9 -15 -26 -26 -37
-10 -11 -29 -37 -42 -57 -12 -21 -27 -38 -32 -38 -5 0 -9 -6 -9 -13 0 -8 -13
-33 -30 -55 -16 -23 -30 -49 -30 -57 0 -8 -4 -15 -9 -15 -5 0 -13 -10 -16 -22
-4 -13 -18 -37 -31 -55 -13 -17 -24 -38 -24 -46 0 -8 -7 -17 -15 -21 -8 -3
-15 -14 -15 -24 0 -11 -7 -25 -15 -32 -8 -7 -15 -21 -15 -31 0 -11 -4 -19 -10
-19 -5 0 -10 -11 -10 -25 0 -14 -7 -28 -15 -31 -8 -4 -15 -16 -15 -29 0 -12
-7 -28 -15 -35 -8 -7 -15 -23 -15 -35 0 -12 -7 -28 -15 -35 -8 -7 -15 -23 -15
-35 0 -13 -7 -25 -15 -29 -8 -3 -15 -18 -15 -33 0 -15 -7 -37 -15 -47 -8 -11
-15 -35 -15 -53 0 -26 6 -36 30 -48 16 -8 42 -15 58 -15 17 0 32 -6 36 -15 14
-36 76 10 76 57 0 15 7 33 15 42 8 8 15 23 15 34 0 11 7 25 15 32 8 7 15 23
15 35 0 12 7 28 15 35 8 7 15 23 15 35 0 13 5 25 10 27 6 2 12 14 15 28 3 14
9 26 15 28 5 2 10 14 10 27 0 12 7 25 15 29 8 3 15 16 15 30 0 13 7 26 15 30
8 3 15 15 15 26 0 11 4 20 9 20 5 0 13 10 16 23 4 12 18 36 31 54 13 17 24 39
24 47 0 9 4 16 9 16 5 0 19 20 31 45 12 25 25 45 30 45 4 0 11 11 14 25 4 14
11 25 16 25 6 0 10 7 10 15 0 8 4 15 10 15 5 0 16 12 24 28 8 15 22 37 33 48
10 12 38 46 63 75 61 73 172 179 188 179 6 0 12 5 12 10 0 6 10 15 23 20 27
12 56 31 75 48 7 6 21 12 31 12 9 0 22 5 27 10 6 6 51 12 100 13 68 2 98 -2
127 -16 47 -23 115 -91 123 -123 3 -13 10 -24 15 -24 5 0 9 -11 9 -24 0 -13 7
-29 15 -36 8 -7 15 -27 15 -44 0 -17 7 -40 15 -50 8 -11 15 -41 15 -66 0 -25
6 -52 13 -58 17 -18 23 -511 6 -555 -7 -18 -15 -74 -19 -126 -4 -60 -10 -96
-18 -99 -15 -5 -16 -68 -1 -78 6 -3 16 -1 22 5 6 6 21 11 34 11 13 0 26 7 29
15 4 8 17 15 31 15 20 0 59 16 93 38 3 2 8 47 11 100 4 53 11 115 17 137 14
50 15 443 1 505 -5 25 -14 79 -18 120 -5 41 -14 76 -20 78 -6 2 -11 19 -11 39
0 19 -7 41 -15 49 -8 9 -15 28 -15 44 0 16 -7 30 -15 34 -8 3 -15 16 -15 30 0
13 -7 26 -15 30 -8 3 -15 12 -15 21 0 18 -116 138 -142 148 -10 3 -18 11 -18
17 0 5 -8 10 -19 10 -10 0 -24 7 -31 15 -7 8 -21 15 -31 15 -10 0 -21 5 -24
10 -4 6 -62 10 -140 10 -78 0 -136 -4 -140 -10z"/>
<path d="M1920 4358 c0 -33 6 -58 16 -69 12 -14 15 -45 15 -174 -1 -155 -1
-158 -27 -193 -15 -19 -35 -37 -45 -39 -10 -3 -20 -11 -23 -19 -8 -21 -149
-20 -166 1 -7 8 -18 15 -25 15 -8 0 -27 17 -44 37 -22 27 -31 48 -31 75 0 20
-4 39 -8 42 -5 3 -12 49 -15 103 -4 54 -11 99 -17 101 -5 2 -10 12 -10 22 0 9
-7 23 -15 30 -8 7 -15 17 -15 23 0 23 -54 67 -82 67 -15 0 -28 -4 -28 -9 0 -5
-10 -13 -22 -16 -25 -7 -90 -37 -98 -45 -8 -8 -43 -29 -60 -37 -51 -22 -204
-169 -248 -237 -15 -23 -32 -45 -39 -49 -7 -4 -13 -16 -13 -26 0 -10 -7 -24
-15 -31 -8 -7 -15 -21 -15 -31 0 -10 -4 -21 -10 -24 -6 -3 -10 -17 -10 -31 l0
-24 140 0 c116 0 142 -3 146 -15 4 -8 12 -15 20 -15 16 0 78 -57 93 -87 6 -12
11 -30 11 -41 0 -11 7 -25 16 -32 12 -11 14 -34 11 -139 -4 -128 -20 -201 -45
-201 -9 0 -12 -10 -10 -27 2 -23 9 -29 34 -31 19 -2 36 3 44 12 7 9 22 16 34
16 11 0 30 7 40 15 28 21 159 21 176 0 7 -8 24 -15 39 -15 15 0 32 -5 39 -12
28 -28 183 -50 197 -28 3 6 17 10 29 10 13 0 29 7 36 15 7 8 24 15 37 15 32 0
83 36 83 60 0 10 7 31 15 46 8 16 15 37 15 47 0 9 5 17 10 17 6 0 10 11 10 24
0 14 4 28 10 31 5 3 14 24 20 45 6 22 15 40 20 40 6 0 10 11 10 24 0 13 7 29
15 36 9 7 14 19 11 27 -3 8 1 16 9 19 8 4 15 17 15 30 0 14 7 27 15 30 8 4 15
16 15 29 0 13 7 25 15 29 8 3 15 17 15 31 0 14 4 25 9 25 5 0 13 10 17 22 3
12 13 28 20 36 8 7 14 22 14 33 0 10 4 19 9 19 5 0 11 8 15 18 3 9 15 31 26
47 40 61 55 135 28 135 -7 0 -32 18 -56 40 -24 22 -47 40 -52 40 -5 0 -13 6
-17 13 -10 15 -36 31 -95 59 -27 12 -48 25 -48 30 0 4 -11 8 -24 8 -13 0 -29
7 -36 15 -7 8 -27 15 -45 15 -18 0 -38 7 -45 15 -7 8 -23 15 -36 15 -22 0 -24
-4 -24 -52z"/>
<path d="M2930 4085 c-7 -8 -19 -15 -26 -15 -8 0 -32 -19 -54 -41 -40 -41 -40
-42 -40 -121 0 -57 5 -86 17 -106 23 -36 79 -92 93 -92 6 0 13 -7 16 -15 4 -8
14 -15 24 -15 10 0 23 -7 30 -15 7 -8 20 -15 30 -15 10 0 23 -7 30 -15 7 -8
22 -15 34 -15 12 0 27 -5 33 -11 10 -10 66 -21 182 -36 90 -11 226 52 245 115
4 12 12 22 17 22 16 0 11 158 -5 167 -8 4 -24 25 -36 46 -12 20 -27 37 -32 37
-6 0 -27 13 -47 28 -20 15 -54 36 -76 46 -22 11 -48 23 -57 27 -10 5 -26 9
-35 9 -10 0 -31 7 -47 15 -41 22 -278 22 -296 0z"/>
<path d="M410 3731 c0 -5 -10 -13 -22 -17 -32 -10 -78 -45 -78 -60 0 -6 -7
-17 -15 -24 -12 -10 -15 -38 -15 -133 0 -131 11 -164 67 -205 26 -19 26 -20
10 -45 -9 -15 -17 -33 -17 -42 0 -9 -7 -18 -15 -21 -8 -4 -15 -16 -15 -29 0
-13 -7 -25 -15 -29 -8 -3 -15 -16 -15 -30 0 -13 -7 -26 -15 -30 -8 -3 -15 -16
-15 -30 0 -13 -7 -26 -15 -30 -8 -3 -15 -13 -15 -21 0 -9 -7 -23 -15 -31 -8
-9 -15 -24 -15 -35 0 -10 -4 -19 -10 -19 -5 0 -10 -9 -10 -19 0 -11 -4 -22 -9
-25 -10 -6 -51 -87 -51 -100 0 -4 -7 -14 -15 -22 -8 -9 -15 -24 -15 -35 0 -10
-4 -19 -10 -19 -5 0 -10 -9 -10 -19 0 -11 -7 -26 -15 -35 -8 -8 -15 -23 -15
-34 0 -11 -7 -22 -15 -26 -13 -5 -15 -152 -15 -1242 l0 -1237 44 -43 43 -44
659 0 659 0 37 34 c20 19 40 46 44 60 3 14 10 26 15 26 5 0 9 500 9 1190 0
1049 -2 1191 -15 1196 -8 4 -15 17 -15 31 0 22 -12 52 -41 103 -5 8 -12 22
-15 30 -3 8 -10 23 -15 32 -5 10 -9 25 -9 33 0 9 -7 18 -15 21 -8 4 -15 16
-15 29 0 12 -7 28 -15 35 -8 7 -15 20 -15 30 0 10 -7 20 -15 24 -8 3 -15 16
-15 30 0 13 -3 26 -7 28 -11 5 -43 67 -43 84 0 8 -7 17 -15 20 -8 4 -15 17
-15 30 0 14 -7 27 -15 30 -8 4 -15 16 -15 29 0 13 -7 25 -15 29 -8 3 -15 12
-15 19 0 18 -30 80 -44 90 -8 6 -7 10 1 14 7 2 26 16 43 31 l30 26 0 154 0
153 -37 34 c-21 19 -43 35 -49 35 -6 0 -17 7 -24 15 -11 13 -62 15 -346 15
-200 0 -334 -4 -334 -9z m604 -246 l1 -50 -269 0 -269 0 1 48 c0 26 1 49 1 52
1 3 121 4 267 3 l267 -3 1 -50z m-168 -1490 c10 -8 29 -15 41 -15 12 0 28 -7
37 -15 8 -8 21 -15 29 -15 24 0 130 -111 160 -166 15 -29 27 -67 28 -85 0 -19
6 -50 13 -69 10 -28 10 -43 -1 -79 -7 -24 -13 -56 -13 -71 0 -30 -42 -111 -80
-156 -45 -53 -136 -114 -168 -114 -10 0 -27 -7 -38 -15 -27 -20 -191 -20 -218
0 -11 8 -30 15 -43 15 -13 0 -23 5 -23 10 0 6 -9 10 -20 10 -11 0 -23 7 -26
15 -4 8 -12 15 -19 15 -14 0 -85 66 -85 80 0 5 -6 15 -13 22 -17 18 -47 82
-47 102 0 9 -4 16 -10 16 -12 0 -14 217 -1 224 4 3 11 20 15 37 3 18 17 47 31
65 14 18 25 36 25 41 1 13 37 53 49 53 6 0 11 5 11 10 0 6 7 10 15 10 9 0 18
7 21 15 4 8 14 15 24 15 10 0 23 7 30 15 7 8 25 15 40 15 15 0 33 7 40 15 17
21 168 21 196 0z"/>
<path d="M2700 3393 c-66 -34 -80 -47 -80 -75 l0 -28 73 0 c49 0 80 -5 93 -15
10 -8 29 -15 40 -15 12 0 27 -6 33 -14 15 -18 63 -28 131 -28 68 0 116 10 131
28 6 8 24 14 40 14 26 0 29 4 29 30 0 19 -5 30 -14 30 -7 0 -19 7 -26 15 -7 8
-23 15 -35 15 -12 0 -28 7 -35 15 -7 8 -27 15 -44 15 -18 0 -38 6 -44 13 -9 8
-54 13 -135 15 -101 2 -128 -1 -157 -15z"/>
<path d="M1360 3170 c-8 -5 -23 -11 -32 -14 -23 -7 -24 -58 -3 -80 8 -8 15
-19 15 -25 0 -6 3 -11 8 -11 4 0 18 -25 31 -55 14 -30 28 -55 33 -55 4 0 8 -8
8 -18 0 -10 5 -23 11 -29 14 -14 36 -52 45 -75 3 -10 10 -18 15 -18 5 0 9 -9
9 -19 0 -11 7 -26 15 -35 8 -8 15 -21 15 -28 0 -8 7 -23 15 -34 8 -10 15 -29
15 -42 0 -13 7 -30 15 -38 13 -14 15 -156 15 -1159 0 -752 3 -1146 10 -1150 6
-3 10 -30 10 -60 0 -30 -4 -57 -10 -60 -5 -3 -10 -26 -10 -50 0 -30 -5 -47
-16 -53 -9 -5 -14 -18 -12 -33 l3 -24 558 -3 557 -2 0 29 c0 19 -6 32 -17 35
-41 13 -182 167 -183 199 0 9 -4 17 -9 17 -11 0 -71 120 -71 142 0 9 -7 21
-15 28 -8 7 -15 25 -15 40 0 15 -7 33 -15 40 -8 7 -15 28 -15 47 0 19 -4 42
-9 52 -6 10 -12 49 -15 87 -3 38 -5 70 -5 72 -1 1 -14 2 -29 2 -18 0 -38 -11
-57 -30 -16 -17 -34 -30 -41 -30 -6 0 -25 -7 -40 -15 -39 -20 -109 -19 -170 3
-51 18 -134 85 -134 109 0 7 -4 13 -10 13 -5 0 -13 18 -16 40 -4 22 -11 43
-15 46 -13 8 -12 1301 1 1309 6 3 10 20 10 36 0 17 7 44 16 62 21 42 100 117
123 117 10 0 24 7 31 15 17 21 139 21 166 0 10 -8 27 -15 36 -15 20 0 98 -75
115 -110 6 -14 15 -44 18 -67 4 -24 11 -43 16 -43 5 0 9 -196 9 -475 l0 -475
24 0 c13 0 29 7 36 15 17 20 136 20 199 -1 27 -8 71 -14 102 -12 l54 3 3 510
c2 419 5 515 17 540 18 40 99 115 123 115 10 0 27 7 38 15 27 20 124 19 166
-2 18 -9 44 -22 58 -29 37 -18 100 -104 100 -137 0 -16 7 -30 16 -34 13 -5 15
-39 13 -275 -1 -147 1 -271 4 -274 12 -13 46 9 69 44 14 20 52 65 85 100 l61
62 80 0 c106 0 130 -14 208 -115 26 -34 70 -65 94 -65 6 0 10 60 10 175 0 130
4 183 14 203 10 19 14 73 15 187 1 95 6 164 13 172 6 7 12 86 15 185 3 95 10
178 15 185 5 7 12 73 15 147 l6 136 -27 25 c-24 22 -36 25 -105 25 -72 0 -101
-7 -163 -41 -21 -11 -191 -12 -202 -2 -4 4 -28 15 -54 25 -62 24 -245 25 -288
3 -16 -8 -37 -15 -46 -15 -10 0 -18 -4 -18 -10 0 -6 -40 -10 -100 -10 -60 0
-100 4 -100 10 0 6 -8 10 -18 10 -10 0 -27 7 -38 15 -29 22 -241 21 -286 -2
-18 -9 -41 -20 -50 -25 -10 -4 -58 -8 -106 -8 -84 0 -110 6 -174 41 -10 5 -67
9 -127 9 -82 0 -118 -4 -143 -17 -18 -9 -41 -20 -50 -25 -10 -4 -58 -8 -107
-8 -77 0 -97 4 -137 25 -43 23 -58 25 -163 24 -64 0 -123 -4 -131 -9z"/>
<path d="M1980 2357 c-19 -13 -47 -39 -62 -58 l-28 -33 0 -683 c0 -598 2 -684
15 -689 8 -4 15 -12 15 -19 0 -16 63 -65 84 -65 8 0 18 -4 21 -10 20 -33 153
23 185 77 19 33 20 52 20 718 l0 683 -32 36 c-17 20 -37 36 -44 36 -7 0 -14 5
-16 12 -2 6 -30 13 -64 15 -50 4 -64 1 -94 -20z"/>
<path d="M2934 2362 c-37 -21 -64 -47 -64 -60 0 -6 -7 -12 -15 -16 -13 -5 -15
-72 -15 -519 0 -386 3 -516 12 -525 7 -7 30 -12 53 -12 23 0 50 -7 61 -15 10
-8 38 -15 62 -15 38 0 42 2 42 24 0 13 7 29 15 36 9 7 14 18 12 24 -3 6 1 22
8 36 7 14 22 46 34 72 12 26 26 50 32 53 5 4 9 172 9 420 l0 413 -32 36 c-17
20 -37 36 -44 36 -7 0 -14 5 -16 12 -7 20 -119 20 -154 0z"/>
<path d="M3553 1824 c-18 -7 -38 -24 -44 -36 -7 -12 -18 -28 -25 -36 -28 -28
-84 -100 -84 -108 0 -5 -14 -24 -30 -43 -17 -18 -30 -40 -30 -47 0 -8 -4 -14
-8 -14 -5 0 -19 -20 -31 -45 -12 -25 -27 -45 -32 -45 -5 0 -9 -9 -9 -20 0 -11
-7 -23 -15 -26 -8 -4 -15 -18 -15 -34 0 -16 -7 -30 -15 -34 -8 -3 -15 -14 -15
-25 0 -11 -4 -22 -9 -25 -5 -4 -12 -24 -16 -46 -4 -22 -11 -40 -16 -40 -5 0
-9 -16 -9 -36 0 -19 -7 -42 -15 -50 -8 -9 -15 -26 -15 -40 0 -27 -2 -28 -33
-12 -41 21 -53 25 -85 33 -18 3 -32 11 -32 16 0 5 -15 9 -33 9 -18 0 -42 7
-53 15 -10 8 -33 15 -50 15 -16 0 -39 7 -50 15 -10 8 -39 15 -64 15 -25 0 -63
7 -85 15 -23 8 -77 14 -126 15 -75 0 -89 -3 -112 -23 -27 -22 -27 -23 -27
-163 0 -84 4 -144 10 -150 6 -6 12 -46 14 -89 2 -48 8 -81 15 -83 6 -2 11 -22
11 -45 1 -23 7 -53 15 -67 8 -14 14 -35 15 -48 0 -13 7 -30 15 -38 8 -9 15
-26 15 -38 0 -13 7 -29 15 -36 8 -7 15 -23 15 -36 0 -13 4 -24 9 -24 5 0 18
-18 29 -39 12 -22 31 -52 44 -68 39 -48 152 -153 166 -153 6 0 12 -4 12 -9 0
-5 11 -12 25 -15 14 -4 25 -11 25 -16 0 -6 11 -10 24 -10 13 0 29 -7 36 -15 7
-8 24 -15 39 -15 14 0 35 -7 45 -15 28 -21 336 -22 374 -1 15 8 35 17 45 20
10 3 17 15 17 31 0 14 5 25 10 25 6 0 10 14 10 30 0 17 -4 30 -10 30 -6 0 -10
26 -10 59 0 33 -7 71 -15 87 -8 16 -15 37 -15 46 0 9 -4 20 -10 23 -5 3 -10
17 -10 31 0 14 -7 27 -15 30 -8 4 -15 12 -15 18 0 21 -119 153 -172 191 -27
20 -53 35 -68 41 -8 3 -26 11 -39 17 -13 7 -47 12 -74 11 -42 0 -54 -5 -74
-28 -31 -37 -31 -93 1 -124 13 -12 31 -22 39 -22 8 0 20 -7 27 -15 7 -8 19
-15 27 -15 16 0 103 -59 103 -70 0 -4 13 -23 30 -41 16 -19 30 -39 30 -45 0
-6 7 -17 15 -24 8 -7 15 -20 15 -30 0 -10 7 -30 14 -46 8 -15 13 -31 10 -36
-9 -14 -203 -9 -232 6 -15 8 -34 17 -42 20 -8 4 -28 15 -45 26 -16 11 -37 23
-45 26 -20 8 -100 105 -125 152 -10 20 -23 39 -27 40 -4 2 -8 14 -8 27 0 12
-7 28 -15 35 -8 7 -15 25 -15 40 0 15 -7 33 -15 40 -8 7 -15 28 -15 47 0 19
-5 44 -12 56 -6 12 -13 53 -15 91 -2 39 -8 75 -13 80 -4 6 -10 34 -11 61 l-3
50 39 -4 c22 -1 48 -7 57 -12 9 -5 36 -9 60 -9 24 0 52 -7 62 -15 11 -8 34
-15 52 -15 17 0 37 -7 44 -15 7 -8 27 -15 45 -15 18 0 38 -7 45 -15 7 -8 21
-15 31 -15 10 0 21 -4 24 -10 3 -5 14 -10 24 -10 10 0 24 -7 31 -15 7 -8 21
-15 32 -15 10 0 21 -7 24 -15 4 -8 10 -15 15 -15 27 0 152 -107 198 -170 28
-39 51 -74 51 -79 0 -5 7 -14 15 -21 8 -7 15 -23 15 -36 0 -13 5 -24 10 -24 6
0 10 -13 10 -30 0 -16 -5 -30 -10 -30 -8 0 -10 -52 -7 -157 5 -175 13 -233 32
-233 7 0 18 -7 25 -15 18 -22 76 -18 110 7 l30 22 0 172 c0 105 4 175 10 179
6 3 10 23 10 44 0 22 6 44 15 51 8 7 15 22 15 33 0 11 11 35 25 53 14 18 25
36 25 41 1 15 115 128 160 158 55 36 80 52 100 62 8 4 21 13 28 20 7 7 22 13
32 13 10 0 22 5 25 10 3 6 15 10 25 10 10 0 25 7 34 15 8 8 28 15 44 15 16 0
35 7 42 15 7 8 27 15 44 15 17 1 42 7 56 15 14 8 44 14 67 15 23 0 45 4 48 10
3 5 23 10 43 10 l38 0 -4 -72 c-2 -40 -10 -96 -18 -125 -8 -28 -14 -67 -14
-86 0 -20 -4 -39 -10 -42 -5 -3 -10 -19 -10 -34 0 -15 -7 -36 -15 -47 -8 -10
-15 -31 -15 -45 0 -15 -7 -32 -15 -39 -8 -7 -15 -21 -15 -31 0 -10 -4 -21 -10
-24 -5 -3 -16 -20 -25 -38 -15 -33 -96 -127 -108 -127 -4 0 -26 -14 -49 -30
-22 -17 -48 -30 -57 -30 -9 0 -25 -7 -35 -15 -14 -11 -47 -15 -118 -15 l-98 0
0 26 c0 23 12 52 41 104 5 8 14 26 19 39 15 34 97 108 142 128 21 9 38 20 38
25 0 4 8 8 18 8 11 0 26 8 35 18 23 25 23 124 1 143 -24 20 -113 17 -159 -5
-92 -43 -213 -151 -242 -216 -3 -8 -12 -19 -20 -23 -7 -4 -13 -16 -13 -26 0
-11 -7 -21 -15 -25 -9 -3 -15 -18 -15 -35 0 -16 -7 -42 -15 -57 -8 -16 -15
-46 -15 -66 0 -20 -4 -40 -10 -43 -5 -3 -10 -35 -10 -71 0 -50 3 -64 15 -64 8
0 15 -7 15 -15 0 -8 8 -15 18 -15 9 0 26 -7 36 -15 29 -22 333 -22 362 0 10 8
32 15 47 15 16 0 35 7 43 15 9 8 24 15 34 15 10 0 22 4 25 10 3 5 22 17 43 27
43 21 192 166 192 188 0 9 7 18 15 21 8 4 15 11 15 18 0 6 14 31 30 56 16 25
30 55 30 68 0 12 7 25 15 28 9 4 15 19 15 38 0 17 7 40 15 50 8 11 15 34 15
52 0 18 5 36 10 39 6 3 10 31 10 61 0 30 7 71 15 91 18 44 22 373 4 373 -6 0
-18 7 -26 16 -14 13 -35 15 -120 12 -63 -2 -107 -8 -115 -16 -6 -6 -35 -12
-63 -12 -28 0 -58 -7 -69 -15 -11 -8 -36 -15 -57 -15 -20 0 -42 -7 -49 -15 -7
-8 -25 -15 -41 -15 -16 0 -38 -5 -49 -12 -26 -17 -33 -7 -38 58 -3 34 -10 58
-18 61 -8 3 -14 18 -14 34 0 16 -4 29 -10 29 -5 0 -10 6 -10 13 0 17 -55 125
-75 147 -8 9 -15 23 -15 31 0 8 -9 22 -20 31 -10 9 -32 36 -47 60 -15 23 -35
50 -43 59 -8 9 -33 38 -55 65 -64 77 -108 119 -138 132 -33 14 -33 14 -74 -4z
m82 -274 c15 -22 32 -40 36 -40 5 0 9 -5 9 -10 0 -6 11 -23 25 -38 14 -15 25
-30 25 -34 0 -5 14 -27 30 -50 17 -22 30 -47 30 -53 0 -7 7 -15 15 -19 8 -3
15 -12 15 -20 0 -7 7 -27 15 -42 8 -16 15 -37 15 -46 0 -9 5 -20 10 -23 6 -3
10 -19 10 -34 0 -15 7 -36 15 -47 22 -29 19 -73 -7 -95 -13 -10 -27 -18 -31
-19 -14 0 -120 -81 -157 -119 -68 -69 -71 -70 -64 -15 4 27 11 53 15 58 5 6 9
24 9 42 0 19 6 34 15 38 10 4 15 20 15 51 0 49 -13 67 -68 97 -30 16 -34 16
-64 0 -44 -24 -68 -49 -68 -71 0 -11 -5 -21 -11 -23 -11 -4 -21 -46 -35 -145
-4 -24 -8 -43 -10 -43 -1 0 -15 12 -31 28 -15 15 -44 39 -63 54 -28 21 -33 29
-22 39 6 7 12 31 12 54 0 23 7 50 15 61 8 10 15 29 15 41 0 12 5 25 10 28 6 3
10 17 10 30 0 13 7 30 15 39 8 8 15 24 15 36 0 11 7 23 15 26 8 4 15 17 15 30
0 13 4 24 9 24 5 0 13 10 17 23 8 26 136 227 145 227 4 0 19 -18 34 -40z"/>
</g>
</svg>
